<svg id="Layer_1" data-name="Layer 1" xmlns="http://www.w3.org/2000/svg" viewBox="0 0 128 128"><defs><style>.cls-1{fill:#fff;}.cls-2{fill:none;stroke:#fff;stroke-miterlimit:10;stroke-width:9px;}</style></defs><path class="cls-1" d="M81,41.85H64a15.32,15.32,0,0,1,9.82,14.29v.5H95.75A14.79,14.79,0,0,0,81,41.85Z"/><path class="cls-1" d="M81,41.85H76.08A14.79,14.79,0,0,1,90.87,56.64h4.88A14.79,14.79,0,0,0,81,41.85Z"/><path class="cls-1" d="M71.87,56.48A14.63,14.63,0,0,0,57.24,41.85H33A14.63,14.63,0,0,0,47.66,56.48H71.87Z"/><path class="cls-1" d="M50.1,56.48a7.14,7.14,0,0,1,7.14,7.14V97.26A14.62,14.62,0,0,0,71.87,82.64V56.48Z"/><circle class="cls-2" cx="64" cy="64" r="46.28"/></svg>